<mxfile host="app.diagrams.net" agent="Mozilla/5.0 (Windows NT 10.0; Win64; x64) AppleWebKit/537.36 (KHTML, like Gecko) Chrome/133.0.0.0 Safari/537.36" version="26.0.16">
  <diagram id="C5RBs43oDa-KdzZeNtuy" name="Page-1">
    <mxGraphModel dx="1194" dy="708" grid="1" gridSize="10" guides="1" tooltips="1" connect="1" arrows="1" fold="1" page="1" pageScale="1" pageWidth="1169" pageHeight="827" math="0" shadow="0">
      <root>
        <mxCell id="WIyWlLk6GJQsqaUBKTNV-0" />
        <mxCell id="WIyWlLk6GJQsqaUBKTNV-1" parent="WIyWlLk6GJQsqaUBKTNV-0" />
        <mxCell id="pftTVOW5zMtByHvlVVlK-6" value="" style="edgeStyle=orthogonalEdgeStyle;rounded=0;orthogonalLoop=1;jettySize=auto;html=1;entryX=0;entryY=0.5;entryDx=0;entryDy=0;" parent="WIyWlLk6GJQsqaUBKTNV-1" source="pftTVOW5zMtByHvlVVlK-7" target="Uk0JDNx7GKkw2sM7v-O2-2" edge="1">
          <mxGeometry relative="1" as="geometry">
            <mxPoint x="153" y="200" as="targetPoint" />
          </mxGeometry>
        </mxCell>
        <mxCell id="Uk0JDNx7GKkw2sM7v-O2-3" value="迪威尔" style="edgeLabel;html=1;align=center;verticalAlign=middle;resizable=0;points=[];fontSize=13;" parent="pftTVOW5zMtByHvlVVlK-6" vertex="1" connectable="0">
          <mxGeometry x="-0.0843" y="-2" relative="1" as="geometry">
            <mxPoint as="offset" />
          </mxGeometry>
        </mxCell>
        <mxCell id="Uk0JDNx7GKkw2sM7v-O2-4" style="edgeStyle=orthogonalEdgeStyle;rounded=0;orthogonalLoop=1;jettySize=auto;html=1;entryX=0.5;entryY=1;entryDx=0;entryDy=0;" parent="WIyWlLk6GJQsqaUBKTNV-1" source="pftTVOW5zMtByHvlVVlK-7" target="pftTVOW5zMtByHvlVVlK-9" edge="1">
          <mxGeometry relative="1" as="geometry">
            <Array as="points">
              <mxPoint x="95" y="300" />
              <mxPoint x="420" y="300" />
            </Array>
          </mxGeometry>
        </mxCell>
        <mxCell id="Uk0JDNx7GKkw2sM7v-O2-7" value="北分" style="edgeLabel;html=1;align=center;verticalAlign=middle;resizable=0;points=[];fontSize=13;" parent="Uk0JDNx7GKkw2sM7v-O2-4" vertex="1" connectable="0">
          <mxGeometry x="0.0216" y="-1" relative="1" as="geometry">
            <mxPoint as="offset" />
          </mxGeometry>
        </mxCell>
        <mxCell id="pftTVOW5zMtByHvlVVlK-7" value="&lt;font style=&quot;font-size: 16px;&quot;&gt;开始&lt;/font&gt;" style="ellipse;whiteSpace=wrap;html=1;fillColor=#d5e8d4;strokeColor=#82b366;" parent="WIyWlLk6GJQsqaUBKTNV-1" vertex="1">
          <mxGeometry x="67" y="200" width="56" height="50" as="geometry" />
        </mxCell>
        <mxCell id="Uk0JDNx7GKkw2sM7v-O2-10" value="" style="edgeStyle=orthogonalEdgeStyle;rounded=0;orthogonalLoop=1;jettySize=auto;html=1;" parent="WIyWlLk6GJQsqaUBKTNV-1" source="pftTVOW5zMtByHvlVVlK-9" target="Uk0JDNx7GKkw2sM7v-O2-9" edge="1">
          <mxGeometry relative="1" as="geometry" />
        </mxCell>
        <mxCell id="Uk0JDNx7GKkw2sM7v-O2-11" value="迪威尔" style="edgeLabel;html=1;align=center;verticalAlign=middle;resizable=0;points=[];fontSize=13;" parent="Uk0JDNx7GKkw2sM7v-O2-10" vertex="1" connectable="0">
          <mxGeometry x="0.0571" y="-1" relative="1" as="geometry">
            <mxPoint as="offset" />
          </mxGeometry>
        </mxCell>
        <mxCell id="Uk0JDNx7GKkw2sM7v-O2-15" style="edgeStyle=orthogonalEdgeStyle;rounded=0;orthogonalLoop=1;jettySize=auto;html=1;entryX=0.5;entryY=0;entryDx=0;entryDy=0;" parent="WIyWlLk6GJQsqaUBKTNV-1" source="pftTVOW5zMtByHvlVVlK-9" target="Uk0JDNx7GKkw2sM7v-O2-12" edge="1">
          <mxGeometry relative="1" as="geometry">
            <Array as="points">
              <mxPoint x="420" y="160" />
              <mxPoint x="770" y="160" />
            </Array>
          </mxGeometry>
        </mxCell>
        <mxCell id="Uk0JDNx7GKkw2sM7v-O2-16" value="北分" style="edgeLabel;html=1;align=center;verticalAlign=middle;resizable=0;points=[];fontSize=13;" parent="Uk0JDNx7GKkw2sM7v-O2-15" vertex="1" connectable="0">
          <mxGeometry x="0.0143" relative="1" as="geometry">
            <mxPoint as="offset" />
          </mxGeometry>
        </mxCell>
        <mxCell id="pftTVOW5zMtByHvlVVlK-9" value="&lt;font style=&quot;font-size: 18px;&quot;&gt;财务部经理&lt;/font&gt;" style="rounded=1;whiteSpace=wrap;html=1;fontSize=12;glass=0;strokeWidth=1;shadow=0;" parent="WIyWlLk6GJQsqaUBKTNV-1" vertex="1">
          <mxGeometry x="360" y="195" width="120" height="60" as="geometry" />
        </mxCell>
        <mxCell id="pftTVOW5zMtByHvlVVlK-10" value="&lt;font style=&quot;font-size: 16px;&quot;&gt;结束&lt;/font&gt;" style="whiteSpace=wrap;html=1;aspect=fixed;fillColor=#f8cecc;strokeColor=#b85450;" parent="WIyWlLk6GJQsqaUBKTNV-1" vertex="1">
          <mxGeometry x="870" y="200" width="50" height="50" as="geometry" />
        </mxCell>
        <mxCell id="pftTVOW5zMtByHvlVVlK-11" value="BPM_JTZB_GNRERP048" style="text;html=1;align=center;verticalAlign=middle;whiteSpace=wrap;rounded=0;fontStyle=1;fontFamily=Verdana;fontSize=15;labelBorderColor=none;labelBackgroundColor=none;textShadow=1;" parent="WIyWlLk6GJQsqaUBKTNV-1" vertex="1">
          <mxGeometry width="220" height="40" as="geometry" />
        </mxCell>
        <mxCell id="pftTVOW5zMtByHvlVVlK-12" value="1000_01" style="text;html=1;align=center;verticalAlign=middle;whiteSpace=wrap;rounded=0;fontStyle=1;fontFamily=Times New Roman;fontSize=15;labelBackgroundColor=none;labelBorderColor=default;" parent="WIyWlLk6GJQsqaUBKTNV-1" vertex="1">
          <mxGeometry x="10" y="93" width="70" height="40" as="geometry" />
        </mxCell>
        <mxCell id="pftTVOW5zMtByHvlVVlK-13" value="迪威尔" style="text;html=1;align=center;verticalAlign=middle;whiteSpace=wrap;rounded=0;fontStyle=1;fontFamily=Times New Roman;fontSize=15;labelBorderColor=default;" parent="WIyWlLk6GJQsqaUBKTNV-1" vertex="1">
          <mxGeometry x="150" y="93" width="56" height="40" as="geometry" />
        </mxCell>
        <mxCell id="pftTVOW5zMtByHvlVVlK-15" value="审批流程：" style="text;html=1;align=center;verticalAlign=middle;whiteSpace=wrap;rounded=0;fontStyle=1;fontFamily=Times New Roman;fontSize=13;textShadow=0;" parent="WIyWlLk6GJQsqaUBKTNV-1" vertex="1">
          <mxGeometry x="10" y="118" width="80" height="40" as="geometry" />
        </mxCell>
        <mxCell id="Uk0JDNx7GKkw2sM7v-O2-0" value="北分" style="text;html=1;align=center;verticalAlign=middle;whiteSpace=wrap;rounded=0;fontStyle=1;fontFamily=Times New Roman;fontSize=15;labelBorderColor=default;" parent="WIyWlLk6GJQsqaUBKTNV-1" vertex="1">
          <mxGeometry x="80" y="93" width="56" height="40" as="geometry" />
        </mxCell>
        <mxCell id="Uk0JDNx7GKkw2sM7v-O2-1" value="or" style="text;html=1;align=center;verticalAlign=middle;whiteSpace=wrap;rounded=0;" parent="WIyWlLk6GJQsqaUBKTNV-1" vertex="1">
          <mxGeometry x="130" y="98" width="20" height="30" as="geometry" />
        </mxCell>
        <mxCell id="Uk0JDNx7GKkw2sM7v-O2-8" value="" style="edgeStyle=orthogonalEdgeStyle;rounded=0;orthogonalLoop=1;jettySize=auto;html=1;" parent="WIyWlLk6GJQsqaUBKTNV-1" source="Uk0JDNx7GKkw2sM7v-O2-2" target="pftTVOW5zMtByHvlVVlK-9" edge="1">
          <mxGeometry relative="1" as="geometry" />
        </mxCell>
        <mxCell id="Uk0JDNx7GKkw2sM7v-O2-2" value="&lt;span style=&quot;font-size: 18px;&quot;&gt;各对应部门&lt;/span&gt;&lt;div&gt;&lt;span style=&quot;font-size: 18px;&quot;&gt;负责人&lt;/span&gt;&lt;/div&gt;" style="rounded=1;whiteSpace=wrap;html=1;fontSize=12;glass=0;strokeWidth=1;shadow=0;" parent="WIyWlLk6GJQsqaUBKTNV-1" vertex="1">
          <mxGeometry x="206" y="195" width="110" height="60" as="geometry" />
        </mxCell>
        <mxCell id="Uk0JDNx7GKkw2sM7v-O2-13" value="" style="edgeStyle=orthogonalEdgeStyle;rounded=0;orthogonalLoop=1;jettySize=auto;html=1;" parent="WIyWlLk6GJQsqaUBKTNV-1" source="Uk0JDNx7GKkw2sM7v-O2-9" target="Uk0JDNx7GKkw2sM7v-O2-12" edge="1">
          <mxGeometry relative="1" as="geometry" />
        </mxCell>
        <mxCell id="Uk0JDNx7GKkw2sM7v-O2-9" value="&lt;font style=&quot;font-size: 18px;&quot;&gt;总经理助理&lt;/font&gt;" style="rounded=1;whiteSpace=wrap;html=1;fontSize=12;glass=0;strokeWidth=1;shadow=0;" parent="WIyWlLk6GJQsqaUBKTNV-1" vertex="1">
          <mxGeometry x="550" y="195" width="120" height="60" as="geometry" />
        </mxCell>
        <mxCell id="Uk0JDNx7GKkw2sM7v-O2-14" value="" style="edgeStyle=orthogonalEdgeStyle;rounded=0;orthogonalLoop=1;jettySize=auto;html=1;" parent="WIyWlLk6GJQsqaUBKTNV-1" source="Uk0JDNx7GKkw2sM7v-O2-12" target="pftTVOW5zMtByHvlVVlK-10" edge="1">
          <mxGeometry relative="1" as="geometry" />
        </mxCell>
        <mxCell id="Uk0JDNx7GKkw2sM7v-O2-12" value="&lt;font style=&quot;font-size: 18px;&quot;&gt;分公司领导&lt;/font&gt;" style="rounded=1;whiteSpace=wrap;html=1;fontSize=12;glass=0;strokeWidth=1;shadow=0;" parent="WIyWlLk6GJQsqaUBKTNV-1" vertex="1">
          <mxGeometry x="720" y="195" width="120" height="60" as="geometry" />
        </mxCell>
      </root>
    </mxGraphModel>
  </diagram>
</mxfile>
